<svg xmlns="http://www.w3.org/2000/svg" width="740.4" height="178.4" viewBox="0 0 740.4 178.4" role="img" aria-label="ProofPlay"><rect width="740.4" height="178.4" fill="#F3F0E7"/><g transform="translate(2.92 2.92) scale(1.51)"><g transform="rotate(-28 48 48)"><g transform="translate(0 5)"><path d="M 21 48 A 27 27 0 0 0 75 48 Z" fill="#101512"/></g><g transform="translate(0 -5)"><path d="M 21 48 A 27 27 0 0 1 75 48 Z" fill="#0E7A4E"/></g></g></g><g transform="translate(156.4 26.4) scale(1)"><g transform="translate(0 0)"><path d="M 6.5 0 L 6.5 100" fill="none" stroke="#101512" stroke-width="13" stroke-linecap="butt" stroke-linejoin="miter"/><path d="M 6.5 6.5 L 29.75 6.5 A 24.75 24.75 0 0 1 54.5 31.25 L 54.5 31.25 A 24.75 24.75 0 0 1 29.75 56 L 6.5 56" fill="none" stroke="#101512" stroke-width="13" stroke-linecap="butt" stroke-linejoin="miter"/></g><g transform="translate(71 0)"><path d="M 6.5 30 L 6.5 100" fill="none" stroke="#101512" stroke-width="13" stroke-linecap="butt" stroke-linejoin="miter"/><path d="M 6.5 51.5 A 21.5 21.5 0 0 0 28 30" fill="none" stroke="#101512" stroke-width="13" stroke-linecap="butt" stroke-linejoin="miter"/></g><g transform="translate(115.5 0)"><path d="M 35 36.5 L 35 36.5 A 28.5 28.5 0 0 1 63.5 65 L 63.5 65 A 28.5 28.5 0 0 1 35 93.5 L 35 93.5 A 28.5 28.5 0 0 1 6.5 65 L 6.5 65 A 28.5 28.5 0 0 1 35 36.5 Z" fill="none" stroke="#101512" stroke-width="13" stroke-linecap="butt" stroke-linejoin="miter"/></g><g transform="translate(195.5 0)"><path d="M 35 36.5 L 35 36.5 A 28.5 28.5 0 0 1 63.5 65 L 63.5 65 A 28.5 28.5 0 0 1 35 93.5 L 35 93.5 A 28.5 28.5 0 0 1 6.5 65 L 6.5 65 A 28.5 28.5 0 0 1 35 36.5 Z" fill="none" stroke="#101512" stroke-width="13" stroke-linecap="butt" stroke-linejoin="miter"/></g><g transform="translate(275.5 0)"><path d="M 20.5 100 L 20.5 23.5 A 20 20 0 0 1 40.5 3.5" fill="none" stroke="#101512" stroke-width="13" stroke-linecap="butt" stroke-linejoin="miter"/><path d="M 6.5 30 L 42.5 30" fill="none" stroke="#101512" stroke-width="13" stroke-linecap="butt" stroke-linejoin="miter"/></g><g transform="translate(323 0)"><path d="M 6.5 0 L 6.5 100" fill="none" stroke="#101512" stroke-width="13" stroke-linecap="butt" stroke-linejoin="miter"/><path d="M 6.5 6.5 L 29.75 6.5 A 24.75 24.75 0 0 1 54.5 31.25 L 54.5 31.25 A 24.75 24.75 0 0 1 29.75 56 L 6.5 56" fill="none" stroke="#101512" stroke-width="13" stroke-linecap="butt" stroke-linejoin="miter"/></g><g transform="translate(392 0)"><path d="M 6.5 0 L 6.5 100" fill="none" stroke="#101512" stroke-width="13" stroke-linecap="butt" stroke-linejoin="miter"/></g><g transform="translate(412 0)"><path d="M 35 36.5 L 35 36.5 A 28.5 28.5 0 0 1 63.5 65 L 63.5 65 A 28.5 28.5 0 0 1 35 93.5 L 35 93.5 A 28.5 28.5 0 0 1 6.5 65 L 6.5 65 A 28.5 28.5 0 0 1 35 36.5 Z" fill="none" stroke="#101512" stroke-width="13" stroke-linecap="butt" stroke-linejoin="miter"/><path d="M 63.5 30 L 63.5 100" fill="none" stroke="#101512" stroke-width="13" stroke-linecap="butt" stroke-linejoin="miter"/></g><g transform="translate(490 0)"><path d="M 6.5 33.6 L 35 92" fill="none" stroke="#101512" stroke-width="13" stroke-linecap="butt" stroke-linejoin="miter"/><path d="M 63.5 33.6 L 20.85 121" fill="none" stroke="#101512" stroke-width="13" stroke-linecap="butt" stroke-linejoin="miter"/></g></g></svg>