<svg xmlns="http://www.w3.org/2000/svg" width="440.04" height="168.16" viewBox="0 0 440.04 168.16" role="img" aria-label="ProofPlay stacked"><rect width="440.04" height="168.16" fill="#F3F0E7"/><g transform="translate(24 24) scale(0.72)"><g transform="translate(0 0)"><path d="M 7.5 0 L 7.5 100" fill="none" stroke="#101512" stroke-width="15" stroke-linecap="butt" stroke-linejoin="miter"/><path d="M 7.5 7.5 L 41.65 7.5 A 14.85 14.85 0 0 1 56.5 22.35 L 56.5 42.15 A 14.85 14.85 0 0 1 41.65 57 L 7.5 57" fill="none" stroke="#101512" stroke-width="15" stroke-linecap="butt" stroke-linejoin="miter" stroke-dasharray="113.75 21" stroke-dashoffset="78.44"/></g><g transform="translate(71.5 0)"><path d="M 7.5 30 L 7.5 100" fill="none" stroke="#101512" stroke-width="15" stroke-linecap="butt" stroke-linejoin="miter"/><path d="M 7.5 48 A 18 18 0 0 0 25.5 30" fill="none" stroke="#101512" stroke-width="15" stroke-linecap="butt" stroke-linejoin="miter"/></g><g transform="translate(112 0)"><path d="M 22.35 37.5 L 47.65 37.5 A 14.85 14.85 0 0 1 62.5 52.35 L 62.5 77.65 A 14.85 14.85 0 0 1 47.65 92.5 L 22.35 92.5 A 14.85 14.85 0 0 1 7.5 77.65 L 7.5 52.35 A 14.85 14.85 0 0 1 22.35 37.5 Z" fill="none" stroke="#101512" stroke-width="15" stroke-linecap="butt" stroke-linejoin="miter"/></g><g transform="translate(189.5 0)"><path d="M 22.35 37.5 L 47.65 37.5 A 14.85 14.85 0 0 1 62.5 52.35 L 62.5 77.65 A 14.85 14.85 0 0 1 47.65 92.5 L 22.35 92.5 A 14.85 14.85 0 0 1 7.5 77.65 L 7.5 52.35 A 14.85 14.85 0 0 1 22.35 37.5 Z" fill="none" stroke="#101512" stroke-width="15" stroke-linecap="butt" stroke-linejoin="miter"/></g><g transform="translate(267 0)"><path d="M 21.5 100 L 21.5 22.5 A 17 17 0 0 1 38.5 5.5" fill="none" stroke="#101512" stroke-width="15" stroke-linecap="butt" stroke-linejoin="miter"/><path d="M 9.6 30 L 40.5 30" fill="none" stroke="#101512" stroke-width="15" stroke-linecap="butt" stroke-linejoin="miter"/></g><g transform="translate(310 0)"><path d="M 7.5 0 L 7.5 100" fill="none" stroke="#101512" stroke-width="15" stroke-linecap="butt" stroke-linejoin="miter"/><path d="M 7.5 7.5 L 41.65 7.5 A 14.85 14.85 0 0 1 56.5 22.35 L 56.5 42.15 A 14.85 14.85 0 0 1 41.65 57 L 7.5 57" fill="none" stroke="#101512" stroke-width="15" stroke-linecap="butt" stroke-linejoin="miter" stroke-dasharray="113.75 21" stroke-dashoffset="78.44"/></g><g transform="translate(379.5 0)"><path d="M 7.5 0 L 7.5 100" fill="none" stroke="#101512" stroke-width="15" stroke-linecap="butt" stroke-linejoin="miter"/></g><g transform="translate(399 0)"><path d="M 22.35 37.5 L 47.65 37.5 A 14.85 14.85 0 0 1 62.5 52.35 L 62.5 77.65 A 14.85 14.85 0 0 1 47.65 92.5 L 22.35 92.5 A 14.85 14.85 0 0 1 7.5 77.65 L 7.5 52.35 A 14.85 14.85 0 0 1 22.35 37.5 Z" fill="none" stroke="#101512" stroke-width="15" stroke-linecap="butt" stroke-linejoin="miter"/><path d="M 62.5 30 L 62.5 100" fill="none" stroke="#101512" stroke-width="15" stroke-linecap="butt" stroke-linejoin="miter"/></g><g transform="translate(474.5 0)"><path d="M 7.5 33.6 L 35 92" fill="none" stroke="#101512" stroke-width="15" stroke-linecap="butt" stroke-linejoin="miter"/><path d="M 62.5 33.6 L 22.29 119" fill="none" stroke="#101512" stroke-width="15" stroke-linecap="butt" stroke-linejoin="miter"/></g></g><text x="220.02" y="150.16" text-anchor="middle" font-family="PingFang SC, Hiragino Sans GB, Microsoft YaHei, sans-serif" font-size="24" font-weight="700" letter-spacing="12" fill="#5B675F">明局</text></svg>