<svg xmlns="http://www.w3.org/2000/svg" width="160" height="160" viewBox="0 0 160 160" role="img" aria-label="ProofPlay pictorial mark"><rect width="160" height="160" fill="#F3F0E7"/><g transform="translate(0.94 4.24) scale(1.65)"><path d="M 22 44 L 22 74 A 10 10 0 0 0 32 84 L 64 84 A 10 10 0 0 0 74 74 L 74 44" fill="none" stroke="#101512" stroke-width="11" stroke-linecap="butt" stroke-linejoin="miter"/><path d="M 35 68 L 61 68" fill="none" stroke="#0E7A4E" stroke-width="11" stroke-linecap="round" stroke-linejoin="miter"/><g transform="rotate(-7 48 25)"><path d="M 25 16 L 71 16 A 9 9 0 0 1 80 25 L 80 25 A 9 9 0 0 1 71 34 L 25 34 A 9 9 0 0 1 16 25 L 16 25 A 9 9 0 0 1 25 16 Z" fill="#101512"/></g></g></svg>