<svg xmlns="http://www.w3.org/2000/svg" width="1898" height="330" viewBox="0 0 1898 330" role="img" aria-label="pictorial proof"><rect width="1898" height="330" fill="#101512"/><g transform="translate(20 20)"><g transform="translate(-51.47 -44.12) scale(3.68)"><path d="M 22 44 L 22 74 A 10 10 0 0 0 32 84 L 64 84 A 10 10 0 0 0 74 74 L 74 44" fill="none" stroke="#F3F0E7" stroke-width="11" stroke-linecap="butt" stroke-linejoin="miter"/><path d="M 35 68 L 61 68" fill="none" stroke="#18A66A" stroke-width="11" stroke-linecap="round" stroke-linejoin="miter"/><g transform="rotate(-7 48 25)"><path d="M 25 16 L 71 16 A 9 9 0 0 1 80 25 L 80 25 A 9 9 0 0 1 71 34 L 25 34 A 9 9 0 0 1 16 25 L 16 25 A 9 9 0 0 1 25 16 Z" fill="#F3F0E7"/></g></g></g><g transform="translate(288 120)"><g transform="translate(-24.71 -21.18) scale(1.76)"><path d="M 22 44 L 22 74 A 10 10 0 0 0 32 84 L 64 84 A 10 10 0 0 0 74 74 L 74 44" fill="none" stroke="#101512" stroke-width="11" stroke-linecap="butt" stroke-linejoin="miter"/><path d="M 35 68 L 61 68" fill="none" stroke="#0E7A4E" stroke-width="11" stroke-linecap="round" stroke-linejoin="miter"/><g transform="rotate(-7 48 25)"><path d="M 25 16 L 71 16 A 9 9 0 0 1 80 25 L 80 25 A 9 9 0 0 1 71 34 L 25 34 A 9 9 0 0 1 16 25 L 16 25 A 9 9 0 0 1 25 16 Z" fill="#101512"/></g></g></g><text x="20" y="310" text-anchor="start" font-family="ui-monospace, SFMono-Regular, Menlo, monospace" font-size="12" letter-spacing="2" font-weight="700" fill="#888888">d</text><g transform="translate(314 20)"><g transform="translate(-51.47 -51.47) scale(3.68)"><g transform="rotate(-28 48 48)"><g transform="translate(0 5)"><path d="M 21 48 A 27 27 0 0 0 75 48 Z" fill="#F3F0E7"/></g><g transform="translate(0 -5)"><path d="M 21 48 A 27 27 0 0 1 75 48 Z" fill="#18A66A"/></g></g></g></g><g transform="translate(582 120)"><g transform="translate(-24.71 -24.71) scale(1.76)"><g transform="rotate(-28 48 48)"><g transform="translate(0 5)"><path d="M 21 48 A 27 27 0 0 0 75 48 Z" fill="#101512"/></g><g transform="translate(0 -5)"><path d="M 21 48 A 27 27 0 0 1 75 48 Z" fill="#0E7A4E"/></g></g></g></g><text x="314" y="310" text-anchor="start" font-family="ui-monospace, SFMono-Regular, Menlo, monospace" font-size="12" letter-spacing="2" font-weight="700" fill="#888888">e</text><g transform="translate(608 20)"><g transform="translate(-41.67 -48.61) scale(3.47)"><path d="M 28 20 L 28 76" fill="none" stroke="#F3F0E7" stroke-width="13" stroke-linecap="butt" stroke-linejoin="miter"/><path d="M 48 20 L 48 76" fill="none" stroke="#F3F0E7" stroke-width="13" stroke-linecap="butt" stroke-linejoin="miter"/><path d="M 68 20 L 68 76" fill="none" stroke="#F3F0E7" stroke-width="13" stroke-linecap="butt" stroke-linejoin="miter"/><path d="M 16 64 L 80 28" fill="none" stroke="#18A66A" stroke-width="13" stroke-linecap="round" stroke-linejoin="miter"/></g></g><g transform="translate(876 120)"><g transform="translate(-20 -23.33) scale(1.67)"><path d="M 28 20 L 28 76" fill="none" stroke="#101512" stroke-width="13" stroke-linecap="butt" stroke-linejoin="miter"/><path d="M 48 20 L 48 76" fill="none" stroke="#101512" stroke-width="13" stroke-linecap="butt" stroke-linejoin="miter"/><path d="M 68 20 L 68 76" fill="none" stroke="#101512" stroke-width="13" stroke-linecap="butt" stroke-linejoin="miter"/><path d="M 16 64 L 80 28" fill="none" stroke="#0E7A4E" stroke-width="13" stroke-linecap="round" stroke-linejoin="miter"/></g></g><text x="608" y="310" text-anchor="start" font-family="ui-monospace, SFMono-Regular, Menlo, monospace" font-size="12" letter-spacing="2" font-weight="700" fill="#888888">f</text><g transform="translate(902 20)"><g transform="translate(-35.03 -65.67) scale(3.12)"><g transform="rotate(-8 48 34)"><path d="M 18 26 L 78 26 A 6 6 0 0 1 84 32 L 84 36 A 6 6 0 0 1 78 42 L 18 42 A 6 6 0 0 1 12 36 L 12 32 A 6 6 0 0 1 18 26 Z" fill="#F3F0E7"/><path d="M 22 42 L 22 51M 36 42 L 36 57M 50 42 L 50 51M 64 42 L 64 57M 78 42 L 78 51" fill="none" stroke="#F3F0E7" stroke-width="6" stroke-linecap="butt" stroke-linejoin="miter"/><path d="M 64 42 L 64 72" fill="none" stroke="#18A66A" stroke-width="7" stroke-linecap="round" stroke-linejoin="miter"/><circle cx="64" cy="82" r="8" fill="#18A66A"/></g></g></g><g transform="translate(1170 120)"><g transform="translate(-16.81 -31.52) scale(1.5)"><g transform="rotate(-8 48 34)"><path d="M 18 26 L 78 26 A 6 6 0 0 1 84 32 L 84 36 A 6 6 0 0 1 78 42 L 18 42 A 6 6 0 0 1 12 36 L 12 32 A 6 6 0 0 1 18 26 Z" fill="#101512"/><path d="M 22 42 L 22 51M 36 42 L 36 57M 50 42 L 50 51M 64 42 L 64 57M 78 42 L 78 51" fill="none" stroke="#101512" stroke-width="6" stroke-linecap="butt" stroke-linejoin="miter"/><path d="M 64 42 L 64 72" fill="none" stroke="#0E7A4E" stroke-width="7" stroke-linecap="round" stroke-linejoin="miter"/><circle cx="64" cy="82" r="8" fill="#0E7A4E"/></g></g></g><text x="902" y="310" text-anchor="start" font-family="ui-monospace, SFMono-Regular, Menlo, monospace" font-size="12" letter-spacing="2" font-weight="700" fill="#888888">g</text><g transform="translate(1196 20)"><g transform="translate(-32.89 -52.63) scale(3.29)"><path d="M 14 62 L 82 40" fill="none" stroke="#F3F0E7" stroke-width="11" stroke-linecap="round" stroke-linejoin="miter"/><path d="M 40 84 L 48 56 L 56 84 Z" fill="#F3F0E7"/><circle cx="22" cy="50" r="10" fill="#F3F0E7"/><circle cx="74" cy="28" r="11" fill="#18A66A"/></g></g><g transform="translate(1464 120)"><g transform="translate(-15.79 -25.26) scale(1.58)"><path d="M 14 62 L 82 40" fill="none" stroke="#101512" stroke-width="11" stroke-linecap="round" stroke-linejoin="miter"/><path d="M 40 84 L 48 56 L 56 84 Z" fill="#101512"/><circle cx="22" cy="50" r="10" fill="#101512"/><circle cx="74" cy="28" r="11" fill="#0E7A4E"/></g></g><text x="1196" y="310" text-anchor="start" font-family="ui-monospace, SFMono-Regular, Menlo, monospace" font-size="12" letter-spacing="2" font-weight="700" fill="#888888">h</text><g transform="translate(1490 20)"><g transform="translate(-37.16 -27.03) scale(3.38)"><path d="M 31 46 L 65 46 A 15 15 0 0 1 80 61 L 80 63 A 15 15 0 0 1 65 78 L 31 78 A 15 15 0 0 1 16 63 L 16 61 A 15 15 0 0 1 31 46 Z" fill="none" stroke="#F3F0E7" stroke-width="10" stroke-linecap="butt" stroke-linejoin="miter"/><path d="M 48 46 L 48 12" fill="none" stroke="#F3F0E7" stroke-width="10" stroke-linecap="butt" stroke-linejoin="miter"/><path d="M 48 12 A 13 13 0 1 1 48 38" fill="none" stroke="#F3F0E7" stroke-width="10" stroke-linecap="butt" stroke-linejoin="miter"/><path d="M 28 62 L 40 62 M 34 56 L 34 68" fill="none" stroke="#F3F0E7" stroke-width="6.5" stroke-linecap="round" stroke-linejoin="miter"/><circle cx="64" cy="62" r="6.5" fill="#18A66A"/></g></g><g transform="translate(1758 120)"><g transform="translate(-17.84 -12.97) scale(1.62)"><path d="M 31 46 L 65 46 A 15 15 0 0 1 80 61 L 80 63 A 15 15 0 0 1 65 78 L 31 78 A 15 15 0 0 1 16 63 L 16 61 A 15 15 0 0 1 31 46 Z" fill="none" stroke="#101512" stroke-width="10" stroke-linecap="butt" stroke-linejoin="miter"/><path d="M 48 46 L 48 12" fill="none" stroke="#101512" stroke-width="10" stroke-linecap="butt" stroke-linejoin="miter"/><path d="M 48 12 A 13 13 0 1 1 48 38" fill="none" stroke="#101512" stroke-width="10" stroke-linecap="butt" stroke-linejoin="miter"/><path d="M 28 62 L 40 62 M 34 56 L 34 68" fill="none" stroke="#101512" stroke-width="6.5" stroke-linecap="round" stroke-linejoin="miter"/><circle cx="64" cy="62" r="6.5" fill="#0E7A4E"/></g></g><text x="1490" y="310" text-anchor="start" font-family="ui-monospace, SFMono-Regular, Menlo, monospace" font-size="12" letter-spacing="2" font-weight="700" fill="#888888">i</text></svg>